<svg width="179" height="51" viewBox="0 0 179 51" fill="none" xmlns="http://www.w3.org/2000/svg">
<mask id="mask0_201_1781" style="mask-type:alpha" maskUnits="userSpaceOnUse" x="0" y="2" width="59" height="47">
<path d="M35.359 7.69451C40.0459 7.77787 44.5122 9.67506 47.7968 12.9775C51.0815 16.2799 52.9219 20.7237 52.9219 25.3524C52.9219 29.9814 51.0815 34.4249 47.7968 37.7273C44.5122 41.0297 40.0459 42.9269 35.359 43.0106" stroke="#14F195" stroke-width="10.565" stroke-miterlimit="10"/>
<path d="M23.0648 43.0105C18.3779 42.9271 13.9116 41.0299 10.627 37.7276C7.34233 34.4252 5.50195 29.9813 5.50195 25.3526C5.50195 20.7236 7.34233 16.2801 10.627 12.9777C13.9116 9.67535 18.3779 7.77816 23.0648 7.69446" stroke="#9945FF" stroke-width="10.565" stroke-miterlimit="10"/>
<path d="M20.5962 25.8058C20.5962 23.3051 22.6234 21.278 25.124 21.278H34.1797C36.6804 21.278 38.7076 23.3051 38.7076 25.8058C38.7076 28.3065 36.6804 30.3336 34.1797 30.3336H25.124C22.6234 30.3336 20.5962 28.3065 20.5962 25.8058Z" fill="url(#paint0_linear_201_1781)"/>
</mask>
<g mask="url(#mask0_201_1781)">
<rect x="-0.535156" y="-2.87048" width="58.8619" height="55.8434" fill="url(#paint1_linear_201_1781)"/>
</g>
<path d="M74.1932 21.0612V19.1035C75.9205 19.7177 77.7861 20.0248 79.7898 20.0248C82.6227 20.0248 84.0391 18.9883 84.0391 16.9155C84.0391 15.1498 82.995 14.2669 80.9069 14.2669H78.788C75.3409 14.2669 73.6174 12.7698 73.6174 9.77576C73.6174 6.62812 75.8246 5.0543 80.2389 5.0543C82.1582 5.0543 83.9432 5.28462 85.5938 5.74525V7.70292C83.9432 7.08875 82.1582 6.78167 80.2389 6.78167C77.2449 6.78167 75.7478 7.7797 75.7478 9.77576C75.7478 11.5415 76.7612 12.4244 78.788 12.4244H80.9069C84.4153 12.4244 86.1695 13.9214 86.1695 16.9155C86.1695 20.1399 84.043 21.7521 79.7898 21.7521C77.7861 21.7521 75.9205 21.5218 74.1932 21.0612ZM92.1225 13.3571C92.1225 17.8022 94.1301 20.0248 98.1453 20.0248C102.076 20.0248 104.041 17.8022 104.041 13.3571C104.041 8.97349 102.076 6.78167 98.1453 6.78167C94.1301 6.78167 92.1225 8.97349 92.1225 13.3571ZM89.877 13.4262C89.877 7.84495 92.6331 5.0543 98.1453 5.0543C103.573 5.0543 106.287 7.84495 106.287 13.4262C106.287 18.9768 103.573 21.7521 98.1453 21.7521C92.6331 21.7521 89.877 18.9768 89.877 13.4262ZM112.942 5.16946V19.9096H121.556V21.637H110.812V5.16946H112.942ZM125.816 21.637H123.605L130.595 5.16946H132.956L139.981 21.637H137.62L135.49 16.4549H130.043L130.63 14.7275H134.776L131.701 7.26533L125.816 21.637ZM143.4 21.637V5.16946H145.531L155.607 18.4356V5.16946H157.622V21.637H155.492L145.415 8.25568V21.637H143.4ZM163.264 21.637H161.053L168.043 5.16946H170.404L177.429 21.637H175.068L172.937 16.4549H167.49L168.078 14.7275H172.223L169.149 7.26533L163.264 21.637ZM74.4235 45.637V29.1695H81.4481C84.5804 29.1695 86.1465 30.4477 86.1465 33.0042C86.1465 34.8774 85.1255 36.2171 83.0833 37.0232C85.2636 37.4301 86.3538 38.6776 86.3538 40.7658C86.3538 44.0132 84.638 45.637 81.2063 45.637H74.4235ZM81.0796 43.9096C83.0449 43.9096 84.0276 42.9116 84.0276 40.9155C84.0276 38.9732 82.711 38.002 80.0777 38.002H79.1565V36.6086C82.3041 36.1864 83.8779 35.0502 83.8779 33.2C83.8779 31.6645 83.0027 30.8968 81.2523 30.8968H76.5539V43.9096H81.0796ZM90.9134 45.637V29.1695H97.938C101.07 29.1695 102.636 30.4861 102.636 33.1194C102.636 35.2613 101.105 36.8466 98.0416 37.8754L103.696 45.637H100.886L95.6464 38.2323V36.8389C98.794 36.3399 100.368 35.1308 100.368 33.2115C100.368 31.6914 99.4926 30.9314 97.7422 30.9314H93.0438V45.637H90.9134ZM109.603 29.1695V45.637H107.472V29.1695H109.603ZM121.037 43.9096C125.068 43.9096 127.083 41.5911 127.083 36.9541C127.083 32.9159 125.068 30.8968 121.037 30.8968H117.18V43.9096H121.037ZM115.049 45.637V29.1695H121.037C126.488 29.1695 129.213 31.7643 129.213 36.9541C129.213 42.7427 126.488 45.637 121.037 45.637H115.049ZM145.934 44.9921C144.606 45.4988 143.174 45.7521 141.638 45.7521C135.673 45.7521 132.691 42.8924 132.691 37.1729C132.691 31.7605 135.569 29.0543 141.327 29.0543C142.978 29.0543 144.513 29.2846 145.934 29.7452V31.5878C144.513 31.0504 143.055 30.7817 141.558 30.7817C137.067 30.7817 134.821 32.9121 134.821 37.1729C134.821 41.7408 137.032 44.0248 141.454 44.0248C142.16 44.0248 142.943 43.9326 143.803 43.7484V38.1517H145.934V44.9921ZM161.399 29.1695V30.8968H152.762V36.4244H160.996V38.1517H152.762V43.9096H161.571V45.637H150.631V29.1695H161.399Z" fill="#FAFAFA"/>
<defs>
<linearGradient id="paint0_linear_201_1781" x1="38.848" y1="30.4975" x2="18.8369" y2="30.4975" gradientUnits="userSpaceOnUse">
<stop stop-color="#14F195"/>
<stop offset="1" stop-color="#9945FF"/>
</linearGradient>
<linearGradient id="paint1_linear_201_1781" x1="-0.535157" y1="25.8058" x2="58.3268" y2="25.8058" gradientUnits="userSpaceOnUse">
<stop offset="0.305997" stop-color="#B131FF"/>
<stop offset="0.73832" stop-color="#14F195"/>
</linearGradient>
</defs>
</svg>
