<svg width="59" height="48" viewBox="0 0 59 48" fill="none" xmlns="http://www.w3.org/2000/svg">
<mask id="mask0_77_285" style="mask-type:alpha" maskUnits="userSpaceOnUse" x="0" y="0" width="59" height="47">
<path d="M35.4317 5.93834C40.1498 6.02226 44.6458 7.93206 47.9522 11.2564C51.2587 14.5807 53.1113 19.0541 53.1113 23.7136C53.1113 28.3734 51.2587 32.8464 47.9522 36.1707C44.6458 39.4951 40.1498 41.4049 35.4317 41.4891" stroke="#14F195" stroke-width="10.6352" stroke-miterlimit="10"/>
<path d="M23.056 41.489C18.338 41.405 13.842 39.4952 10.5355 36.1709C7.22907 32.8466 5.37646 28.3732 5.37646 23.7138C5.37646 19.054 7.22907 14.581 10.5355 11.2566C13.842 7.93228 18.338 6.02249 23.056 5.93823" stroke="#9945FF" stroke-width="10.6352" stroke-miterlimit="10"/>
<path d="M20.5708 24.17C20.5708 21.6527 22.6115 19.6121 25.1287 19.6121H34.2446C36.7619 19.6121 38.8025 21.6527 38.8025 24.17C38.8025 26.6873 36.7619 28.7279 34.2446 28.7279H25.1287C22.6115 28.7279 20.5708 26.6873 20.5708 24.17Z" fill="url(#paint0_linear_77_285)"/>
</mask>
<g mask="url(#mask0_77_285)">
<rect x="-0.700684" y="-4.6969" width="59.2531" height="56.2145" fill="url(#paint1_linear_77_285)"/>
</g>
<defs>
<linearGradient id="paint0_linear_77_285" x1="38.9438" y1="28.8929" x2="18.7998" y2="28.8929" gradientUnits="userSpaceOnUse">
<stop stop-color="#14F195"/>
<stop offset="1" stop-color="#9945FF"/>
</linearGradient>
<linearGradient id="paint1_linear_77_285" x1="-0.700684" y1="24.17" x2="58.5524" y2="24.17" gradientUnits="userSpaceOnUse">
<stop offset="0.305997" stop-color="#B131FF"/>
<stop offset="0.73832" stop-color="#14F195"/>
</linearGradient>
</defs>
</svg>
